<svg width="27" height="24" viewBox="0 0 27 24" fill="none" xmlns="http://www.w3.org/2000/svg">
<path d="M1.05584 0.282858C0.919179 0.280174 0.783494 0.315232 0.656674 0.385993C0.529854 0.456754 0.414426 0.561807 0.3171 0.695048C0.219774 0.828289 0.142491 0.98706 0.0897409 1.16213C0.0369909 1.33721 0.00982666 1.52509 0.00982666 1.71487C0.00982666 1.90465 0.0369909 2.09253 0.0897409 2.26761C0.142491 2.44268 0.219774 2.60145 0.3171 2.73469C0.414426 2.86793 0.529854 2.97299 0.656674 3.04375C0.783494 3.11451 0.919179 3.14956 1.05584 3.14688H25.8077C25.9443 3.14956 26.08 3.11451 26.2068 3.04375C26.3337 2.97299 26.4491 2.86793 26.5464 2.73469C26.6437 2.60145 26.721 2.44268 26.7738 2.26761C26.8265 2.09253 26.8537 1.90465 26.8537 1.71487C26.8537 1.52509 26.8265 1.33721 26.7738 1.16213C26.721 0.98706 26.6437 0.828289 26.5464 0.695048C26.4491 0.561807 26.3337 0.456754 26.2068 0.385993C26.08 0.315232 25.9443 0.280174 25.8077 0.282858H1.05584ZM1.05584 10.3069C0.919179 10.3043 0.783494 10.3393 0.656674 10.4101C0.529854 10.4808 0.414426 10.5859 0.3171 10.7191C0.219774 10.8524 0.142491 11.0111 0.0897409 11.1862C0.0369909 11.3613 0.00982666 11.5492 0.00982666 11.739C0.00982666 11.9287 0.0369909 12.1166 0.0897409 12.2917C0.142491 12.4668 0.219774 12.6255 0.3171 12.7588C0.414426 12.892 0.529854 12.9971 0.656674 13.0678C0.783494 13.1386 0.919179 13.1736 1.05584 13.171H25.8077C25.9443 13.1736 26.08 13.1386 26.2068 13.0678C26.3337 12.9971 26.4491 12.892 26.5464 12.7588C26.6437 12.6255 26.721 12.4668 26.7738 12.2917C26.8265 12.1166 26.8537 11.9287 26.8537 11.739C26.8537 11.5492 26.8265 11.3613 26.7738 11.1862C26.721 11.0111 26.6437 10.8524 26.5464 10.7191C26.4491 10.5859 26.3337 10.4808 26.2068 10.4101C26.08 10.3393 25.9443 10.3043 25.8077 10.3069H1.05584ZM1.05584 20.331C0.919179 20.3283 0.783494 20.3634 0.656674 20.4342C0.529854 20.5049 0.414426 20.61 0.3171 20.7432C0.219774 20.8765 0.142491 21.0352 0.0897409 21.2103C0.0369909 21.3854 0.00982666 21.5733 0.00982666 21.763C0.00982666 21.9528 0.0369909 22.1407 0.0897409 22.3158C0.142491 22.4908 0.219774 22.6496 0.3171 22.7829C0.414426 22.9161 0.529854 23.0211 0.656674 23.0919C0.783494 23.1627 0.919179 23.1977 1.05584 23.195H25.8077C25.9443 23.1977 26.08 23.1627 26.2068 23.0919C26.3337 23.0211 26.4491 22.9161 26.5464 22.7829C26.6437 22.6496 26.721 22.4908 26.7738 22.3158C26.8265 22.1407 26.8537 21.9528 26.8537 21.763C26.8537 21.5733 26.8265 21.3854 26.7738 21.2103C26.721 21.0352 26.6437 20.8765 26.5464 20.7432C26.4491 20.61 26.3337 20.5049 26.2068 20.4342C26.08 20.3634 25.9443 20.3283 25.8077 20.331H1.05584Z" fill="white"/>
</svg>
