<svg width="29" height="27" viewBox="0 0 29 27" fill="none" xmlns="http://www.w3.org/2000/svg">
<g clip-path="url(#clip0_1_13)">
<path d="M14.9414 12.2965C15.1735 12.2965 15.396 12.3821 15.5601 12.5345C15.7242 12.6869 15.8164 12.8935 15.8164 13.109V15.5465H18.4414C18.6735 15.5465 18.896 15.6321 19.0601 15.7845C19.2242 15.9369 19.3164 16.1435 19.3164 16.359C19.3164 16.5745 19.2242 16.7812 19.0601 16.9335C18.896 17.0859 18.6735 17.1715 18.4414 17.1715H15.8164V19.609C15.8164 19.8245 15.7242 20.0312 15.5601 20.1835C15.396 20.3359 15.1735 20.4215 14.9414 20.4215C14.7093 20.4215 14.4868 20.3359 14.3227 20.1835C14.1586 20.0312 14.0664 19.8245 14.0664 19.609V17.1715H11.4414C11.2093 17.1715 10.9868 17.0859 10.8227 16.9335C10.6586 16.7812 10.5664 16.5745 10.5664 16.359C10.5664 16.1435 10.6586 15.9369 10.8227 15.7845C10.9868 15.6321 11.2093 15.5465 11.4414 15.5465H14.0664V13.109C14.0664 12.8935 14.1586 12.6869 14.3227 12.5345C14.4868 12.3821 14.7093 12.2965 14.9414 12.2965V12.2965Z" fill="#1392FF"/>
<path d="M7.06641 0.921509C7.29847 0.921509 7.52103 1.00711 7.68512 1.15948C7.84922 1.31186 7.94141 1.51852 7.94141 1.73401V2.54651H21.9414V1.73401C21.9414 1.51852 22.0336 1.31186 22.1977 1.15948C22.3618 1.00711 22.5843 0.921509 22.8164 0.921509C23.0485 0.921509 23.271 1.00711 23.4351 1.15948C23.5992 1.31186 23.6914 1.51852 23.6914 1.73401V2.54651H25.4414C26.3697 2.54651 27.2599 2.88892 27.9163 3.49841C28.5727 4.10791 28.9414 4.93456 28.9414 5.79651V23.6715C28.9414 24.5335 28.5727 25.3601 27.9163 25.9696C27.2599 26.5791 26.3697 26.9215 25.4414 26.9215H4.44141C3.51315 26.9215 2.62291 26.5791 1.96653 25.9696C1.31016 25.3601 0.941406 24.5335 0.941406 23.6715V5.79651C0.941406 4.93456 1.31016 4.10791 1.96653 3.49841C2.62291 2.88892 3.51315 2.54651 4.44141 2.54651H6.19141V1.73401C6.19141 1.51852 6.28359 1.31186 6.44769 1.15948C6.61178 1.00711 6.83434 0.921509 7.06641 0.921509V0.921509ZM2.69141 7.42151V23.6715C2.69141 24.1025 2.87578 24.5158 3.20397 24.8206C3.53216 25.1253 3.97728 25.2965 4.44141 25.2965H25.4414C25.9055 25.2965 26.3507 25.1253 26.6788 24.8206C27.007 24.5158 27.1914 24.1025 27.1914 23.6715V7.42151H2.69141Z" fill="#1392FF"/>
</g>
<defs>
<clipPath id="clip0_1_13">
<rect width="28" height="26" fill="white" transform="translate(0.941406 0.921509)"/>
</clipPath>
</defs>
</svg>
