<svg width="28" height="29" viewBox="0 0 28 29" fill="none" xmlns="http://www.w3.org/2000/svg">
<path d="M14.0003 28.9154C11.2313 28.9154 8.52455 28.0943 6.22227 26.556C3.91998 25.0176 2.12556 22.8311 1.06594 20.273C0.00631011 17.7148 -0.270937 14.8999 0.269257 12.1841C0.80945 9.46841 2.14282 6.97385 4.10076 5.01592C6.05869 3.05798 8.55325 1.72461 11.269 1.18442C13.9847 0.644225 16.7997 0.921471 19.3578 1.9811C21.916 3.04072 24.1025 4.83514 25.6408 7.13743C27.1792 9.43972 28.0002 12.1465 28.0002 14.9154C28.0002 18.6284 26.5253 22.1894 23.8997 24.8149C21.2742 27.4404 17.7133 28.9154 14.0003 28.9154ZM14.0003 2.91541C11.6269 2.91541 9.3068 3.6192 7.33341 4.93778C5.36002 6.25635 3.82195 8.1305 2.9137 10.3232C2.00544 12.5159 1.7678 14.9287 2.23083 17.2565C2.69385 19.5843 3.83674 21.7225 5.51497 23.4007C7.1932 25.0789 9.3314 26.2218 11.6592 26.6848C13.9869 27.1479 16.3997 26.9102 18.5925 26.002C20.7852 25.0937 22.6593 23.5556 23.9779 21.5823C25.2965 19.6089 26.0002 17.2888 26.0002 14.9154C26.0002 11.7328 24.736 8.68057 22.4855 6.43013C20.2351 4.17969 17.1828 2.91541 14.0003 2.91541V2.91541Z" fill="#1392FF"/>
<path d="M18.5902 20.9154L13.0002 15.3254V5.91541H15.0002V14.4954L20.0002 19.5054L18.5902 20.9154Z" fill="#1392FF"/>
</svg>
