<svg xmlns="http://www.w3.org/2000/svg" version="1.1" xmlns:xlink="http://www.w3.org/1999/xlink" xmlns:svgjs="http://svgjs.com/svgjs" width="512" height="512" x="0" y="0" viewBox="0 0 24 24" style="enable-background:new 0 0 512 512" xml:space="preserve" class=""><g><path d="m19 24h-1a1 1 0 0 1 0-2h1a3 3 0 0 0 3-3v-1a1 1 0 0 1 2 0v1a5.006 5.006 0 0 1 -5 5zm5-18v-1a5.006 5.006 0 0 0 -5-5h-1a1 1 0 0 0 0 2h1a3 3 0 0 1 3 3v1a1 1 0 0 0 2 0zm-17 17a1 1 0 0 0 -1-1h-1a3 3 0 0 1 -3-3v-1a1 1 0 0 0 -2 0v1a5.006 5.006 0 0 0 5 5h1a1 1 0 0 0 1-1zm-5-17v-1a3 3 0 0 1 3-3h1a1 1 0 0 0 0-2h-1a5.006 5.006 0 0 0 -5 5v1a1 1 0 0 0 2 0zm14 6a4 4 0 1 0 -4 4 4 4 0 0 0 4-4zm-2 0a2 2 0 1 1 -2-2 2 2 0 0 1 2 2z" fill="#ffffff" data-original="#000000" class=""></path></g></svg>