<svg width="21" height="20" viewBox="0 0 21 20" fill="none" xmlns="http://www.w3.org/2000/svg">
<circle cx="10.8472" cy="9.95833" r="9.45833" fill="#1391FF" stroke="white"/>
<path d="M6.77527 12.7271V10.4785C6.77527 9.61284 6.91251 8.81051 7.18699 8.07152C7.48258 7.33253 7.97876 6.6041 8.67552 5.88623L9.91069 6.80469C9.36172 7.41699 8.98167 7.97651 8.77053 8.48324C8.58051 8.96886 8.4855 9.48615 8.4855 10.0351L7.72539 9.49671H10.0057V12.7271H6.77527ZM12.096 12.7271V10.4785C12.096 9.61284 12.2332 8.81051 12.5077 8.07152C12.8033 7.33253 13.2995 6.6041 13.9962 5.88623L15.2314 6.80469C14.6824 7.41699 14.3024 7.97651 14.0912 8.48324C13.9012 8.96886 13.8062 9.48615 13.8062 10.0351L13.0461 9.49671H15.3264V12.7271H12.096Z" fill="white"/>
</svg>
