<svg width="62" height="77" viewBox="0 0 62 77" fill="none" xmlns="http://www.w3.org/2000/svg">
<path d="M24.8505 45.3084C24.8505 50.6007 24.6192 56.1232 24.9084 61.617C25.2554 68.2037 31.2999 73.4673 38.0674 73.5249C44.8639 73.5824 50.9373 68.3188 51.4289 61.6457C51.6892 57.849 51.4868 53.9948 51.4868 50.1981C46.0785 48.0696 43.8516 44.5893 44.8349 39.7859C45.6447 35.759 49.1442 32.9978 53.3666 33.0266C57.6759 33.0841 61.2332 36.1905 61.8983 40.5625C62.5635 44.7043 59.9317 48.4435 54.9573 50.1981C54.9573 53.5346 54.9862 56.9286 54.9573 60.3226C54.8705 65.615 52.7882 70.0445 48.5658 73.266C43.1864 77.4079 37.1709 78.1557 31.0396 75.2506C24.8505 72.3456 21.5824 67.2258 21.4089 60.3802C21.2932 55.3179 21.38 50.2268 21.38 45.5385C18.835 44.3017 16.3767 43.3237 14.1497 41.9718C11.2287 40.1885 9.2621 37.3985 7.58468 34.4935C2.72595 26.0371 0.441185 16.8905 0.00737006 7.19739C-0.021551 6.39202 0.0362911 5.5579 0.151975 4.75253C0.470106 2.96923 1.13529 2.33644 2.92839 2.19263C4.80826 2.04881 6.68813 2.10634 8.56799 1.96252C9.14641 1.905 9.84052 1.64613 10.2743 1.24345C11.9807 -0.367278 14.3811 -0.424805 15.9718 1.15716C17.5335 2.73912 17.4467 5.32779 15.7404 6.79471C14.063 8.26162 11.6047 7.97399 10.043 6.27697C9.63807 5.81676 8.91504 5.47161 8.3077 5.41408C6.74597 5.29903 5.15531 5.38532 3.18868 5.38532C3.50681 8.40543 3.65142 11.1667 4.08523 13.8992C4.8661 18.9902 6.28323 23.9087 8.33662 28.6258C9.69591 31.7897 11.489 34.6948 13.8316 37.1972C19.2109 42.9786 26.6725 43.2087 32.2832 37.1972C37.7782 31.3008 40.0341 23.9375 41.6247 16.344C42.261 13.3239 42.4345 10.1887 42.8105 7.08234C42.9551 5.87429 42.5213 5.27027 41.2198 5.38532C40.41 5.44285 39.5713 5.41408 38.7615 5.38532C37.5468 5.32779 36.5635 5.47161 35.667 6.62213C34.3655 8.26162 31.7626 8.14657 30.2588 6.67966C28.7259 5.18398 28.697 2.76789 30.1431 1.24345C31.618 -0.309753 34.0763 -0.453568 35.5802 1.07087C36.3322 1.84747 37.0841 2.04881 38.0963 2.02005C39.687 1.99129 41.2777 2.04881 42.8683 2.16386C45.182 2.33644 46.0786 3.05552 46.0207 5.38532C45.905 9.00946 45.7026 12.6624 45.0952 16.229C43.9384 23.017 41.7693 29.5175 38.0096 35.3851C35.9851 38.5491 33.6136 41.4541 30.1141 43.1799C28.4946 44.014 26.7593 44.5605 24.8505 45.3084ZM58.4857 41.5116C58.4567 38.5778 56.0852 36.4206 52.875 36.4206C50.2721 36.4494 48.0452 38.923 48.103 41.713C48.1609 44.5893 50.3878 46.804 53.251 46.804C56.2009 46.8616 58.5146 44.503 58.4857 41.5116Z" fill="#FFF"/>
</svg>
