<svg width="16" height="15" viewBox="0 0 16 15" fill="none" xmlns="http://www.w3.org/2000/svg">
<path d="M4.46533 5.00024H0.974274V15H4.46533V5.00024Z" fill="white"/>
<path d="M2.71975 0C1.6251 0 0.767122 1.0059 1.0038 2.13014C1.15173 2.78101 1.68426 3.31354 2.33514 3.46147C3.45937 3.69815 4.43569 2.84018 4.43569 1.74553C4.46527 0.798807 3.66648 0 2.71975 0Z" fill="white"/>
<path d="M15.9443 8.0771C15.7076 6.18365 14.7609 5.00024 12.2165 5.00024C10.4118 5.00024 9.70179 5.29609 9.2876 6.0653V5.00024H6.44742V15H9.34677V9.76345C9.34677 8.4617 9.58345 7.4854 11.2106 7.4854C12.8082 7.4854 12.9266 8.69839 12.9266 9.85221V15H15.9147C15.9443 15 16.0034 8.52088 15.9443 8.0771Z" fill="white"/>
</svg>
