<svg width="20" height="21" viewBox="0 0 20 21" fill="none" xmlns="http://www.w3.org/2000/svg">
<path d="M9.84335 6.3926L7.13696 3.26879C6.82497 2.90881 6.25297 2.91041 5.89057 3.27359L3.66498 5.50306C3.00259 6.16622 2.81299 7.15096 3.19618 7.94051C5.48547 12.6802 9.30819 16.5081 14.0449 18.8039C14.8337 19.187 15.8177 18.9974 16.4801 18.3343L18.7265 16.084C19.0905 15.72 19.0913 15.1449 18.7281 14.8329L15.5921 12.1411C15.2641 11.8595 14.7545 11.8963 14.4257 12.2259L13.3345 13.3186C13.2787 13.3771 13.2051 13.4157 13.1252 13.4284C13.0453 13.4412 12.9634 13.4273 12.8921 13.389C11.1085 12.3619 9.62894 10.8805 8.60416 9.09564C8.56578 9.02425 8.55188 8.94223 8.5646 8.86218C8.57731 8.78213 8.61594 8.70846 8.67456 8.65247L9.76255 7.56373C10.0921 7.23255 10.1281 6.72138 9.84335 6.3926Z" stroke="white" stroke-linecap="round" stroke-linejoin="round"/>
</svg>
