<svg width="14" height="14" viewBox="0 0 14 14" fill="none" xmlns="http://www.w3.org/2000/svg">
<path d="M13.7362 13.2451L13.7369 13.2458C13.8731 13.3815 13.8731 13.6013 13.7369 13.737C13.6687 13.805 13.5794 13.8391 13.4895 13.8391C13.3998 13.8391 13.3107 13.8051 13.2425 13.7374C13.2424 13.7373 13.2423 13.7372 13.2422 13.7371L9.16743 9.6267L9.06381 9.52218L8.95048 9.61609C8.0205 10.3867 6.82663 10.8506 5.52566 10.8506C2.56711 10.8506 0.16092 8.45237 0.16092 5.50599C0.16092 2.55939 2.56712 0.16092 5.52566 0.16092C8.48413 0.16092 10.8903 2.55939 10.8903 5.50599C10.8903 6.80189 10.4248 7.99114 9.65149 8.91772L9.55767 9.03014L9.66076 9.13412L13.7362 13.2451ZM5.52566 0.856284C2.95336 0.856284 0.859944 2.94145 0.859944 5.50599C0.859944 8.07034 2.95338 10.1553 5.52566 10.1553C8.09788 10.1553 10.1912 8.07033 10.1912 5.50599C10.1912 2.94145 8.0979 0.856284 5.52566 0.856284Z" fill="white" stroke="white" stroke-width="0.321839"/>
</svg>
