<svg width="44" height="71" viewBox="0 0 44 71" fill="none" xmlns="http://www.w3.org/2000/svg">
<path d="M9.49961 11.4373C9.49961 10.2713 9.48246 9.2082 9.49961 8.16221C9.51676 7.06478 9.91114 6.65325 10.9914 6.65325C11.8488 6.65325 12.7062 6.6361 13.5635 6.65325C14.0094 6.67039 14.1808 6.53322 14.3009 6.07024C15.244 2.4693 18.3648 0.0172373 21.9657 8.99856e-05C25.6181 -0.0170573 28.6703 2.41786 29.7163 6.08739C29.7849 6.3103 30.1278 6.6018 30.3679 6.6018C31.2767 6.67039 32.2026 6.61895 33.1115 6.6361C34.0374 6.65325 34.4661 7.06478 34.4832 8.00788C34.5004 9.12246 34.4832 10.2199 34.4832 11.4202C34.8948 11.4202 35.2034 11.4202 35.4949 11.4202C37.7241 11.4202 39.9532 11.4202 42.1824 11.4202C43.7256 11.4202 43.9829 11.6774 44 13.2035C44 20.4568 44 27.7101 44 34.9806C44 46.0921 44 57.2035 44 68.3321C44 70.0126 43.7256 70.2869 42.0795 70.2869C28.6874 70.2869 15.2783 70.2869 1.8862 70.2869C0.291504 70.2869 0 69.9954 0 68.3836C0 50.2931 0 32.2027 0 14.1295C0 13.7008 0 13.2721 0 12.8434C0.0342946 11.8317 0.394388 11.4373 1.40608 11.4373C3.75526 11.4202 6.0873 11.4373 8.43648 11.4373C8.74513 11.4373 9.05378 11.4373 9.49961 11.4373ZM41.5308 67.852C41.5308 49.813 41.5308 31.8426 41.5308 13.8551C39.1816 13.8551 36.8496 13.8551 34.4832 13.8551C34.4832 14.3352 34.4832 14.7296 34.4832 15.124C34.4832 16.7702 34.1917 17.0617 32.5284 17.0617C26.3897 17.0617 20.2338 17.0617 14.0951 17.0617C13.0663 17.0617 12.0374 17.0788 11.0086 17.0617C9.84256 17.0445 9.46532 16.6673 9.44817 15.5184C9.44817 14.9525 9.44817 14.4038 9.44817 13.7694C7.33905 13.7694 5.33281 13.8037 3.34373 13.7522C2.52065 13.7351 2.29774 13.958 2.29774 14.7811C2.31489 32.1513 2.31489 49.5215 2.31489 66.9089C2.31489 67.2175 2.31489 67.5091 2.31489 67.852C15.4326 67.852 28.4302 67.852 41.5308 67.852ZM32.1169 8.98528C31.0709 8.98528 30.1107 8.98528 29.1504 8.98528C27.9501 8.98528 27.6243 8.67663 27.5214 7.49346C27.2471 4.50983 24.9493 2.38357 21.9829 2.40071C19.0164 2.40071 16.7529 4.50983 16.4786 7.51061C16.3757 8.62519 16.0327 8.95099 14.901 8.96813C13.9065 8.98528 12.9291 8.96813 11.9345 8.96813C11.9345 10.9401 11.9345 12.7748 11.9345 14.6439C18.6906 14.6439 25.378 14.6439 32.1169 14.6439C32.1169 12.7748 32.1169 10.9572 32.1169 8.98528Z" fill="#1391FF"/>
<path d="M22.0857 59.0212C22.8402 56.672 23.6118 54.3228 24.3663 51.9736C24.8636 50.4304 24.9322 50.3618 26.5269 50.3618C29.8192 50.3618 33.0943 50.3618 36.3866 50.3618C36.6952 50.3618 37.1068 50.276 37.3125 50.4304C37.6726 50.7219 38.1013 51.1163 38.1871 51.5449C38.2899 52.1108 37.8784 52.5566 37.2611 52.6595C36.9867 52.711 36.6952 52.6938 36.4037 52.6938C33.4544 52.6938 30.5222 52.711 27.5729 52.6767C26.9213 52.6767 26.6298 52.8481 26.4412 53.4826C25.4638 56.6377 24.4178 59.7756 23.4061 62.9307C23.3718 63.0336 23.3375 63.1537 23.3032 63.2565C23.1317 63.8739 22.7888 64.3883 22.0857 64.3883C21.3655 64.3883 21.0569 63.8739 20.8511 63.2737C20.2167 61.2846 19.5822 59.3127 18.9478 57.3236C17.6274 53.1739 16.2899 49.0071 14.9696 44.8575C14.8839 44.566 14.7638 44.2745 14.5752 43.7944C13.8893 45.9035 13.2549 47.824 12.6376 49.7616C11.5573 53.1396 12.0374 52.6595 8.6251 52.6938C8.07638 52.6938 7.54482 52.711 6.9961 52.6595C6.32736 52.6081 5.93297 52.1794 5.93297 51.5278C5.93297 50.8419 6.32736 50.3961 7.0304 50.3618C7.75058 50.3275 8.45362 50.3103 9.17381 50.3618C9.75682 50.3961 10.014 50.2074 10.1855 49.6244C11.18 46.3836 12.2089 43.1428 13.2549 39.9191C13.3749 39.5247 13.5978 39.096 13.8893 38.8559C14.5409 38.3244 15.3811 38.7188 15.6898 39.6961C16.5986 42.4912 17.4903 45.2862 18.3991 48.0812C19.5651 51.7164 20.7311 55.3516 21.8971 58.9869C21.9486 59.004 22.0171 59.004 22.0857 59.0212Z" fill="#1391FF"/>
<path d="M38.29 27.0586C38.2385 28.5504 37.5526 30.0594 36.1294 31.1397C34.449 32.4086 32.7 33.6089 31.0024 34.8607C30.4708 35.255 29.9564 35.255 29.4248 34.8778C27.6586 33.626 25.841 32.4257 24.1434 31.0882C22.1887 29.5621 21.5542 27.0415 22.3944 24.7609C23.166 22.6518 25.1894 21.16 27.3843 21.2971C28.2931 21.3486 29.1848 21.9659 30.0764 21.9659C30.9681 21.9659 31.8597 21.3314 32.7514 21.2971C35.8722 21.16 38.29 23.612 38.29 27.0586ZM30.0764 32.5629C31.6368 31.414 33.1458 30.3166 34.6547 29.1849C34.8948 28.9963 35.1006 28.7391 35.272 28.4819C36.0608 27.2987 35.8036 25.4639 34.7062 24.4179C33.6773 23.4234 32.237 23.372 30.9681 24.3494C30.3165 24.8638 29.7506 24.8123 29.1162 24.3665C27.6415 23.3377 26.0468 23.5434 25.018 24.8638C24.0063 26.167 24.1263 28.1561 25.4123 29.1849C26.9042 30.3681 28.4989 31.414 30.0764 32.5629Z" fill="#1391FF"/>
<path d="M12.1231 35.6322C10.477 35.6322 8.81366 35.6837 7.16752 35.5979C6.73884 35.5808 6.20727 35.2207 5.96721 34.8606C5.79574 34.6205 5.93291 34.0032 6.15583 33.7117C6.34445 33.4545 6.84172 33.283 7.18467 33.2659C10.4255 33.2316 13.6835 33.2316 16.9243 33.2488C17.7989 33.2488 18.2961 33.7117 18.2961 34.4319C18.2961 35.1521 17.7817 35.5979 16.9072 35.6151C15.3125 35.6494 13.7178 35.6322 12.1231 35.6322Z" fill="#1391FF"/>
<path d="M12.0888 27.4017C13.6835 27.4017 15.2954 27.4017 16.8901 27.4017C17.7646 27.4017 18.279 27.8475 18.2961 28.5505C18.3133 29.2707 17.7989 29.7509 16.9244 29.768C13.7007 29.7851 10.4598 29.7851 7.23613 29.768C6.34447 29.768 5.8472 29.305 5.83005 28.602C5.8129 27.8475 6.32732 27.4188 7.27043 27.4017C8.89942 27.4017 10.4941 27.4017 12.0888 27.4017Z" fill="#1391FF"/>
<path d="M12.1403 21.5544C13.7178 21.5544 15.2782 21.5544 16.8558 21.5544C17.7817 21.5544 18.3133 22.0174 18.2961 22.7547C18.279 23.4577 17.7817 23.9036 16.8901 23.9036C13.6835 23.9207 10.4941 23.9207 7.28758 23.9036C6.34447 23.9036 5.83005 23.4406 5.8472 22.6861C5.86435 21.9316 6.34447 21.5544 7.33902 21.5544C8.95086 21.5544 10.5456 21.5544 12.1403 21.5544Z" fill="#1391FF"/>
<path d="M25 15.729C22.8737 15.729 21.159 13.9971 21.159 11.888C21.159 9.77888 22.8909 8.047 25 8.047C27.1091 8.047 28.841 9.77888 28.841 11.888C28.841 13.9971 27.1091 15.729 25 15.729ZM25 9.72743C23.8168 9.72743 22.8394 10.6877 22.8394 11.888C22.8394 13.0883 23.7997 14.0486 25 14.0486C26.2003 14.0486 27.1606 13.0883 27.1606 11.888C27.1606 10.6877 26.1832 9.72743 25 9.72743Z" fill="#1391FF"/>
</svg>
