<svg width="85" height="66" viewBox="0 0 85 66" fill="none" xmlns="http://www.w3.org/2000/svg">
<path d="M60.053 1.44664C73.2413 4.52216 83.3018 15.912 84.7875 29.3869C86.6901 46.4586 75.6391 61.8362 58.802 65.2245C49.2105 67.1532 40.401 64.9899 32.5559 59.0995C31.5394 58.3176 31.2527 57.4314 31.6436 56.4931C32.0085 55.633 32.9207 55.0857 33.833 55.3203C34.3021 55.4245 34.7452 55.7112 35.1362 56.024C51.6605 68.5345 75.4827 59.9335 80.2263 39.7342C84.1098 23.2359 72.8242 6.94608 56.0132 4.83492C48.6632 3.92269 41.9388 5.64289 35.8659 9.89127C35.0058 10.4907 34.1718 10.6732 33.2596 10.0737C32.5037 9.55245 32.217 8.77054 32.5037 7.96256C32.7122 7.41522 33.1553 6.86789 33.6245 6.52906C38.4202 3.11472 43.7632 1.186 49.6276 0.664731C52.3382 0.430158 58.5935 1.21207 60.053 1.44664Z" fill="#1391FF"/>
<path d="M17.2566 35.3032C12.7476 35.3032 8.21251 35.3032 3.70349 35.3032C3.31254 35.3032 2.89552 35.3032 2.50456 35.225C1.59233 35.0426 0.992868 34.2868 0.94074 33.3745C0.888613 32.4623 1.43595 31.6283 2.29605 31.3676C2.63488 31.2634 3.02583 31.2373 3.39073 31.2373C12.6694 31.2373 21.922 31.2373 31.2007 31.2373C32.6602 31.2373 33.5203 31.8889 33.6507 33.0618C33.807 34.3389 32.8166 35.2772 31.3049 35.2772C27.3693 35.3032 23.4076 35.2772 19.472 35.2772C18.7422 35.3032 18.0124 35.3032 17.2566 35.3032Z" fill="#1391FF"/>
<path d="M52.2079 37.8054C50.592 37.7272 49.1324 36.8932 48.2984 35.1469C47.4904 33.4788 47.8292 31.3937 49.1064 30.1166C50.4617 28.7092 52.1297 28.2922 53.9803 28.9438C54.684 29.2044 55.1531 29.0741 55.7005 28.7092C59.1669 26.4416 62.6595 24.1741 66.1259 21.9326C67.1946 21.255 68.2371 21.3071 68.9408 22.089C69.853 23.0794 69.6185 24.4869 68.3414 25.3209C65.0313 27.4842 61.7472 29.6475 58.4111 31.7586C57.5771 32.306 57.0297 32.8012 56.9255 33.948C56.6648 36.2155 54.684 37.7793 52.2079 37.8054Z" fill="#1391FF"/>
<path d="M24.3459 21.9848C20.4624 21.9848 16.5789 21.9848 12.6955 21.9848C11.1838 21.9848 10.3497 21.281 10.3497 20.0039C10.3497 18.7268 11.2098 17.9709 12.6694 17.9709C20.4885 17.9709 28.3337 17.9709 36.1528 17.9709C37.5602 17.9709 38.5246 18.831 38.4985 20.03C38.4724 21.2289 37.5863 21.9848 36.2049 21.9848C32.2432 21.9848 28.3076 21.9848 24.3459 21.9848Z" fill="#1391FF"/>
<path d="M19.3678 48.6218C16.7354 48.6218 14.0769 48.6218 11.4444 48.6218C11.0796 48.6218 10.7147 48.5957 10.3498 48.5175C9.41148 48.309 8.78595 47.5011 8.81202 46.5628C8.83808 45.5984 9.51574 44.7383 10.5062 44.6341C11.262 44.5559 12.0439 44.5819 12.7998 44.5819C17.7258 44.5819 22.6258 44.5819 27.5518 44.5819C28.9071 44.5819 29.7151 45.1293 29.9236 46.1197C30.2103 47.5271 29.272 48.5957 27.7082 48.6218C24.9194 48.6218 22.1306 48.6218 19.3678 48.6218Z" fill="#1391FF"/>
</svg>
