<svg width="74" height="69" viewBox="0 0 74 69" fill="none" xmlns="http://www.w3.org/2000/svg">
<path d="M37.1831 11.6956C39.1434 8.85781 41.5611 6.54191 44.6649 5.00885C57.1781 -1.12341 70.3121 7.61832 71.8477 19.9481C72.5991 26.0151 70.4755 31.2666 67.5677 36.3225C62.961 44.2814 56.6881 50.805 49.9251 56.9373C46.3312 60.1991 42.5086 63.1348 38.7841 66.2335C37.7386 67.1142 36.6604 67.3099 35.5169 66.4292C24.3759 57.9485 14.019 48.7175 6.60258 36.6487C3.49878 31.5928 1.53849 26.2434 2.0939 20.1438C2.81268 11.9239 10.1311 4.19339 18.201 3.21484C25.6174 2.30152 31.4983 4.91099 36.0723 10.7171C40.6463 16.5231 37.1831 11.6956 37.1831 11.6956Z" stroke="#1391FF" stroke-width="4" stroke-miterlimit="10"/>
<path d="M37.0306 40.5287C37.9751 37.6975 38.9197 34.8663 39.8643 32.0351C40.4755 30.1746 40.5588 30.0938 42.5313 30.0938C46.6152 30.0938 50.6714 30.0938 54.7553 30.0938C55.1442 30.0938 55.6443 29.9859 55.8943 30.1746C56.3388 30.5252 56.8667 31.0105 56.9778 31.4959C57.1167 32.1969 56.5889 32.7092 55.811 32.8441C55.4776 32.898 55.1164 32.898 54.7553 32.898C51.1159 32.898 47.4487 32.9249 43.8093 32.871C43.0036 32.871 42.6425 33.0598 42.3924 33.8417C41.17 37.6436 39.8921 41.4185 38.6419 45.2204C38.5863 45.3552 38.5586 45.49 38.503 45.6248C38.2807 46.3798 37.864 46.973 37.0028 47C36.1138 47 35.7248 46.3798 35.4748 45.6518C34.6969 43.279 33.8912 40.8792 33.1134 38.5064C31.4742 33.5181 29.8351 28.5029 28.1682 23.5146C28.0571 23.1641 27.9182 22.8135 27.6959 22.2203C26.8347 24.7549 26.0568 27.0738 25.3067 29.3927C23.9732 33.4642 24.5566 32.871 20.3338 32.9249C19.667 32.9249 18.9725 32.9519 18.3057 32.898C17.4723 32.844 17 32.3317 17 31.5498C17 30.7139 17.5001 30.1746 18.3613 30.1477C19.2503 30.0938 20.1393 30.0668 21.0283 30.1477C21.7507 30.2016 22.084 29.9589 22.3063 29.2579C23.5287 25.3481 24.8344 21.4654 26.1124 17.5826C26.2791 17.1242 26.5291 16.5849 26.8903 16.2883C27.6959 15.6412 28.7239 16.1265 29.1406 17.3129C30.2241 20.6565 31.3353 24.0269 32.4466 27.3974C33.8912 31.7655 35.3359 36.1606 36.7805 40.5287C36.8639 40.5017 36.9472 40.5287 37.0306 40.5287Z" fill="#1391FF"/>
</svg>
