<svg width="16" height="12" viewBox="0 0 16 12" fill="none" xmlns="http://www.w3.org/2000/svg">
<path d="M15.8715 1.48453C15.3766 1.70103 14.8199 1.82473 14.2632 1.88659C14.8509 1.54638 15.3457 0.989682 15.5931 0.340198C15.5931 0.309271 15.5622 0.247421 15.5313 0.278348C14.9746 0.587626 14.356 0.835043 13.6756 0.958754C13.1189 0.371126 12.3148 0 11.4179 0C9.71686 0 8.3251 1.36082 8.3251 3.03092C8.3251 3.27834 8.35603 3.49484 8.41788 3.71134C5.85088 3.58763 3.59315 2.38144 2.07768 0.556697H2.04675C1.79933 0.989686 1.64469 1.51546 1.64469 2.07216C1.64469 3.09277 2.17046 4.02061 2.97459 4.57731C3.00551 4.57731 2.97459 4.60824 2.97459 4.60824C2.51067 4.57731 2.04676 4.4536 1.67562 4.2371H1.64469C1.64469 4.36081 1.70654 4.97937 1.86118 5.35051C2.26325 6.30927 3.0983 7.02061 4.11892 7.2371C3.8715 7.29896 3.59315 7.32988 3.31479 7.32988C3.12923 7.32988 2.94366 7.29896 2.7581 7.26803C2.7581 7.26803 2.72717 7.26803 2.72717 7.29895C3.12923 8.47421 4.24263 9.34019 5.5416 9.37112C5.57253 9.37112 5.57253 9.40205 5.5416 9.40205C4.49006 10.2062 3.19108 10.6701 1.73747 10.6701C1.49005 10.6701 1.24263 10.6701 0.995209 10.6392C2.35603 11.5051 3.9952 12 5.72716 12C8.13953 12 10.0571 11.1649 11.5107 9.92782C12.9643 8.65978 13.8921 6.95875 14.2942 5.19587C14.4179 4.57731 14.5107 3.95876 14.5107 3.37113C14.5107 3.24742 14.5107 3.1237 14.5107 2.96906C15.0674 2.567 15.5622 2.07216 15.9643 1.51546C15.9643 1.51546 15.9333 1.48453 15.8715 1.48453Z" fill="white"/>
</svg>
