<svg width="33" height="31" viewBox="0 0 33 31" fill="none" xmlns="http://www.w3.org/2000/svg">
<path d="M16.1071 13.1543C16.3741 13.1543 16.6302 13.2533 16.819 13.4295C17.0078 13.6057 17.1138 13.8447 17.1138 14.0939V16.9126H20.1339C20.4009 16.9126 20.657 17.0116 20.8457 17.1878C21.0345 17.364 21.1406 17.603 21.1406 17.8522C21.1406 18.1014 21.0345 18.3404 20.8457 18.5166C20.657 18.6928 20.4009 18.7918 20.1339 18.7918H17.1138V21.6105C17.1138 21.8597 17.0078 22.0987 16.819 22.2749C16.6302 22.4511 16.3741 22.5501 16.1071 22.5501C15.8401 22.5501 15.5841 22.4511 15.3953 22.2749C15.2065 22.0987 15.1004 21.8597 15.1004 21.6105V18.7918H12.0803C11.8133 18.7918 11.5573 18.6928 11.3685 18.5166C11.1797 18.3404 11.0736 18.1014 11.0736 17.8522C11.0736 17.603 11.1797 17.364 11.3685 17.1878C11.5573 17.0116 11.8133 16.9126 12.0803 16.9126H15.1004V14.0939C15.1004 13.8447 15.2065 13.6057 15.3953 13.4295C15.5841 13.2533 15.8401 13.1543 16.1071 13.1543Z" fill="white"/>
<path d="M7.04688 0C7.31387 0 7.56992 0.0989915 7.75872 0.275198C7.94751 0.451404 8.05357 0.69039 8.05357 0.939583V1.87917H24.1607V0.939583C24.1607 0.69039 24.2668 0.451404 24.4556 0.275198C24.6444 0.0989915 24.9004 0 25.1674 0C25.4344 0 25.6905 0.0989915 25.8793 0.275198C26.068 0.451404 26.1741 0.69039 26.1741 0.939583V1.87917H28.1875C29.2555 1.87917 30.2797 2.27513 31.0349 2.97996C31.79 3.68478 32.2143 4.64073 32.2143 5.6375V26.3083C32.2143 27.3051 31.79 28.2611 31.0349 28.9659C30.2797 29.6707 29.2555 30.0667 28.1875 30.0667H4.02679C2.95882 30.0667 1.93459 29.6707 1.17942 28.9659C0.42425 28.2611 0 27.3051 0 26.3083V5.6375C0 4.64073 0.42425 3.68478 1.17942 2.97996C1.93459 2.27513 2.95882 1.87917 4.02679 1.87917H6.04018V0.939583C6.04018 0.69039 6.14624 0.451404 6.33503 0.275198C6.52383 0.0989915 6.77988 0 7.04688 0V0ZM2.01339 7.51667V26.3083C2.01339 26.8067 2.22552 27.2847 2.6031 27.6371C2.98069 27.9895 3.4928 28.1875 4.02679 28.1875H28.1875C28.7215 28.1875 29.2336 27.9895 29.6112 27.6371C29.9888 27.2847 30.2009 26.8067 30.2009 26.3083V7.51667H2.01339Z" fill="white"/>
</svg>
