<svg width="28" height="28" viewBox="0 0 28 28" fill="none" xmlns="http://www.w3.org/2000/svg">
<path d="M24.749 27.2314H2.48242C1.12838 27.2314 0 26.103 0 24.749V2.48242C0 1.12838 1.12838 0 2.48242 0H24.749C26.103 0 27.2314 1.12838 27.2314 2.48242V24.749C27.1938 26.1406 26.103 27.2314 24.749 27.2314Z" fill="#2552C8"/>
<path d="M18.2049 10.7952V8.91463C18.2049 8.01193 18.8067 7.78625 19.258 7.78625C19.6717 7.78625 21.8909 7.78625 21.8909 7.78625V3.76172H18.2425C14.218 3.76172 13.3153 6.77072 13.3153 8.68895V10.7952H10.9833V15.4968H13.3153C13.3153 20.8378 13.3153 27.2319 13.3153 27.2319H18.0168C18.0168 27.2319 18.0168 20.7625 18.0168 15.4968H21.5148L21.9285 10.7952H18.2049V10.7952Z" fill="white"/>
</svg>
