<svg width="28" height="28" viewBox="0 0 28 28" fill="none" xmlns="http://www.w3.org/2000/svg">
<path d="M25.2868 27.2314H3.02026C1.66622 27.2314 0.537842 26.103 0.537842 24.749V2.48242C0.537842 1.12838 1.66622 0 3.02026 0H25.2868C26.6409 0 27.7692 1.12838 27.7692 2.48242V24.749C27.7692 26.1406 26.6409 27.2314 25.2868 27.2314Z" fill="#2552C8"/>
<path d="M18.0649 19.2955H10.2415C8.13519 19.2955 6.44263 17.6029 6.44263 15.4966V11.773C6.44263 9.66668 8.13519 7.97412 10.2415 7.97412H18.0649C20.1712 7.97412 21.8637 9.66668 21.8637 11.773V15.4966C21.8637 17.6029 20.1712 19.2955 18.0649 19.2955Z" fill="#FCFCFC"/>
<path d="M17.5935 13.7148L11.9066 16.7866C11.699 16.8696 11.4915 16.7451 11.4915 16.5375V10.394C11.4915 10.1864 11.7405 10.0204 11.9066 10.1449L17.5935 13.2167C17.7595 13.2997 17.7595 13.5903 17.5935 13.7148Z" fill="#2552C8"/>
</svg>
