<svg width="28" height="28" viewBox="0 0 28 28" fill="none" xmlns="http://www.w3.org/2000/svg">
<path d="M25.4029 27.2314H3.13635C1.78231 27.2314 0.653931 26.103 0.653931 24.749V2.48242C0.653931 1.12838 1.78231 0 3.13635 0H25.4029C26.757 0 27.8853 1.12838 27.8853 2.48242V24.749C27.8853 26.1406 26.757 27.2314 25.4029 27.2314Z" fill="#2552C8"/>
<path d="M9.19169 10.4556H4.75342V23.1686H9.19169V10.4556Z" fill="white"/>
<path d="M6.97264 4.09912C5.58098 4.09912 4.49021 5.37795 4.79111 6.80722C4.97918 7.63469 5.6562 8.31172 6.48367 8.49978C7.91295 8.80068 9.15416 7.70992 9.15416 6.31826C9.19177 5.11467 8.17624 4.09912 6.97264 4.09912Z" fill="white"/>
<path d="M23.7854 14.3673C23.4845 11.9601 22.2809 10.4556 19.0462 10.4556C16.7519 10.4556 15.8492 10.8317 15.3226 11.8096V10.4556H11.7118V23.1686H15.3978V16.5112C15.3978 14.8562 15.6987 13.615 17.7674 13.615C19.7985 13.615 19.9489 15.1571 19.9489 16.624V23.1686H23.7478C23.7854 23.1686 23.8606 14.9314 23.7854 14.3673Z" fill="white"/>
</svg>
