<svg width="28" height="28" viewBox="0 0 28 28" fill="none" xmlns="http://www.w3.org/2000/svg">
<path d="M25.4155 27.2314H3.14893C1.79488 27.2314 0.666504 26.103 0.666504 24.749V2.48242C0.666504 1.12838 1.79488 0 3.14893 0H25.4155C26.7695 0 27.8979 1.12838 27.8979 2.48242V24.749C27.8979 26.1406 26.7695 27.2314 25.4155 27.2314Z" fill="#2552C8"/>
<path d="M22.5188 8.12375C21.917 8.38704 21.24 8.53748 20.563 8.61271C21.2776 8.19897 21.8794 7.52195 22.1803 6.73209C22.1803 6.69447 22.1427 6.61926 22.1051 6.65687C21.4281 7.03299 20.6758 7.33389 19.8483 7.48434C19.1713 6.7697 18.1934 6.31836 17.1026 6.31836C15.034 6.31836 13.3414 7.9733 13.3414 10.0044C13.3414 10.3053 13.379 10.5686 13.4542 10.8319C10.3324 10.6814 7.58669 9.21451 5.74368 6.99538H5.70607C5.40517 7.52195 5.21711 8.16136 5.21711 8.83839C5.21711 10.0796 5.85652 11.208 6.83444 11.885C6.87205 11.885 6.83444 11.9226 6.83444 11.9226C6.27025 11.885 5.70607 11.7345 5.25472 11.4713H5.21711C5.21711 11.6217 5.29233 12.374 5.48039 12.8253C5.96935 13.9913 6.98489 14.8564 8.2261 15.1197C7.9252 15.1949 7.58669 15.2325 7.24818 15.2325C7.0225 15.2325 6.79683 15.1949 6.57116 15.1573C6.57116 15.1573 6.53354 15.1573 6.53354 15.1949C7.02251 16.6242 8.37656 17.6773 9.95628 17.7149C9.99389 17.7149 9.99389 17.7525 9.95628 17.7525C8.67746 18.7305 7.09773 19.2946 5.32994 19.2946C5.02904 19.2946 4.72815 19.2946 4.42725 19.257C6.08219 20.3102 8.07565 20.912 10.1819 20.912C13.1157 20.912 15.4477 19.8964 17.2155 18.3919C18.9833 16.8498 20.1116 14.7812 20.6006 12.6372C20.751 11.885 20.8639 11.1327 20.8639 10.4181C20.8639 10.2677 20.8639 10.1172 20.8639 9.92914C21.5409 9.44018 22.1427 8.83839 22.6317 8.16137C22.6317 8.16137 22.5941 8.12375 22.5188 8.12375Z" fill="white"/>
</svg>
