<svg width="20" height="18" viewBox="0 0 20 18" fill="none" xmlns="http://www.w3.org/2000/svg">
<path d="M2 4H5V2C5 1.46957 5.21071 0.960859 5.58579 0.585786C5.96086 0.210714 6.46957 0 7 0H13C13.5304 0 14.0391 0.210714 14.4142 0.585786C14.7893 0.960859 15 1.46957 15 2V4H18C18.5304 4 19.0391 4.21071 19.4142 4.58579C19.7893 4.96086 20 5.46957 20 6V16C20 16.5304 19.7893 17.0391 19.4142 17.4142C19.0391 17.7893 18.5304 18 18 18H2C1.46957 18 0.960859 17.7893 0.585787 17.4142C0.210714 17.0391 0 16.5304 0 16V6C0 5.46957 0.210714 4.96086 0.585787 4.58579C0.960859 4.21071 1.46957 4 2 4ZM13 2H7V4H13V2ZM6 12H9V15H11V12H14V10H11V7H9V10H6V12Z" fill="white"/>
</svg>
