<svg width="21" height="22" viewBox="0 0 21 22" fill="none" xmlns="http://www.w3.org/2000/svg">
<path d="M0 11.8356C0 11.546 0 11.2564 0 10.9668C0.0161405 10.8593 0.0322809 10.7517 0.0403512 10.6442C0.0968428 10.1808 0.129128 9.70919 0.22597 9.25412C0.807027 6.49059 2.22739 4.29798 4.48705 2.67627C5.81864 1.72476 7.29549 1.1373 8.90954 0.913905C9.24849 0.864261 9.58743 0.831165 9.92638 0.789795C10.1927 0.789795 10.4671 0.789795 10.7334 0.789795C10.8222 0.806343 10.919 0.822891 11.0078 0.831165C11.4759 0.889083 11.9439 0.922179 12.404 1.02147C14.365 1.43517 16.0759 2.35359 17.5124 3.79326C19.1829 5.46462 20.1917 7.49175 20.5387 9.85812C20.5872 10.1725 20.6194 10.4869 20.6598 10.7931C20.6598 11.182 20.6598 11.5626 20.6598 11.9514C20.6275 12.2245 20.6033 12.4975 20.563 12.7706C20.2401 15.1039 19.2959 17.1227 17.6819 18.7941C16.0678 20.4737 14.1068 21.4914 11.831 21.8389C11.5324 21.8885 11.2338 21.9216 10.9352 21.963C10.5317 21.963 10.1281 21.963 9.72463 21.963C9.66007 21.9465 9.5955 21.9299 9.53094 21.9216C9.09515 21.8554 8.65129 21.8306 8.2155 21.7313C5.8832 21.2184 3.94634 20.0269 2.413 18.157C1.16212 16.6263 0.395441 14.8556 0.121053 12.8781C0.0726321 12.5306 0.0403512 12.1831 0 11.8356ZM10.3218 20.6474C15.3092 20.6474 19.3524 16.5022 19.3686 11.4136C19.3847 6.35821 15.4061 2.19638 10.4832 2.11364C5.38285 2.0309 1.28317 6.27547 1.28317 11.3888C1.28317 16.4939 5.33442 20.6474 10.3218 20.6474Z" fill="white"/>
<path d="M11.5582 13.383C11.5582 14.4587 11.5582 15.5343 11.5582 16.61C11.5582 17.3381 11.1224 17.8511 10.4284 17.9669C9.80702 18.0662 9.12912 17.5698 9.04035 16.9244C9.01614 16.7506 9 16.5686 9 16.3866C9 14.3263 9 12.266 9 10.2058C9 9.78379 9.09685 9.3949 9.41965 9.10531C9.81509 8.74125 10.2831 8.6585 10.7674 8.85708C11.3 9.08049 11.5502 9.52729 11.5582 10.1148C11.5582 11.2069 11.5582 12.2991 11.5582 13.383Z" fill="white"/>
<path d="M10.2994 4.79416C11.0015 4.81071 11.5745 5.41479 11.5503 6.11816C11.5261 6.83808 10.9369 7.41733 10.251 7.40078C9.565 7.38423 8.99201 6.78843 9.00008 6.09333C9.00008 5.36514 9.58921 4.77761 10.2994 4.79416Z" fill="white"/>
</svg>
