<svg width="21" height="23" viewBox="0 0 21 23" fill="none" xmlns="http://www.w3.org/2000/svg">
<path d="M14.2048 7.58014L14.0737 7.5689C14.0262 7.56365 13.9808 7.54658 13.9416 7.51925L13.9426 7.52019C13.817 7.95296 13.6634 8.40822 13.4714 8.88503C13.225 9.5089 12.9824 10.0213 12.7107 10.5159L12.7482 10.441C12.7707 10.7819 12.7978 11.1323 12.8334 11.4714C12.849 11.6714 12.8896 11.8688 12.9543 12.0587L12.9496 12.0419C12.9608 12.0465 12.9768 13.9903 12.9768 13.9903C12.9764 14.5934 12.7731 15.1789 12.3997 15.6524C12.0262 16.126 11.5042 16.4601 10.9178 16.601L10.8991 16.6047C10.873 16.5371 10.8272 16.4789 10.7675 16.4378C10.7078 16.3967 10.6371 16.3746 10.5646 16.3743H10.027C9.95515 16.3753 9.88522 16.3974 9.82591 16.4379C9.7666 16.4783 9.72054 16.5354 9.69348 16.6019L9.69254 16.6047C9.10114 16.468 8.57321 16.1357 8.19425 15.6615C7.8153 15.1874 7.60751 14.5991 7.60454 13.9922V13.9912C7.60454 13.9912 7.63732 12.0559 7.65418 12.0428C7.71001 11.8617 7.74828 11.6757 7.76847 11.4873L7.7694 11.4733C7.80219 11.1323 7.82373 10.7904 7.85465 10.4428C7.62327 10.025 7.38065 9.51358 7.16708 8.98619L7.13148 8.8869C6.93945 8.4101 6.7905 7.95577 6.6603 7.52206C6.62181 7.54939 6.577 7.56647 6.53009 7.57171H6.52915L6.39707 7.58295C6.23782 7.59981 6.09731 7.46867 6.0842 7.26539L5.94181 5.45654V5.45467C5.9419 5.38187 5.96846 5.3116 6.01655 5.25696C6.06464 5.20232 6.13097 5.16704 6.20317 5.15772H6.22096C6.09621 4.21581 6.17349 3.25814 6.44766 2.34842L6.43548 2.39619C6.6997 1.80953 7.10154 1.29526 7.60691 0.897029C8.11228 0.498798 8.70626 0.22836 9.33845 0.108662L9.36281 0.104915C9.66931 0.0434631 9.9805 0.00836317 10.293 0H10.3127C10.6396 0.00585382 10.9651 0.0428666 11.285 0.110536L11.2513 0.104915C11.8831 0.222197 12.4777 0.489129 12.9852 0.883369C13.4927 1.27761 13.8984 1.78768 14.1683 2.3709L14.1786 2.39619C14.4483 3.3024 14.5202 4.25598 14.3894 5.19238L14.3931 5.15772C14.4655 5.16555 14.5325 5.19978 14.5812 5.25387C14.6299 5.30796 14.657 5.37811 14.6573 5.45092V5.45748L14.5149 7.26633C14.5018 7.47429 14.3594 7.59981 14.2058 7.58295L14.2048 7.58014Z" fill="white"/>
<path d="M0.260532 19.5518C0.326105 16.7041 0.610876 16.0596 0.764502 15.6231C0.82539 15.4479 0.875038 14.2639 2.83096 13.4957C4.02999 13.0236 5.5775 13.0143 6.88707 12.4606V14.0006C6.88842 14.7901 7.16431 15.5546 7.66744 16.163C8.17058 16.7714 8.86964 17.1859 9.64484 17.3355L9.66639 17.3392C9.68043 17.4223 9.72319 17.4978 9.78722 17.5526C9.85124 17.6074 9.93247 17.638 10.0167 17.639H10.0336V18.8005C10.0336 19.3456 9.81706 19.8684 9.43163 20.2538C9.0462 20.6392 8.52345 20.8557 7.97837 20.8557C7.4333 20.8557 6.91054 20.6392 6.52512 20.2538C6.13969 19.8684 5.92315 19.3456 5.92315 18.8005V17.9893C6.20606 17.9478 6.46395 17.8041 6.64805 17.5853C6.83214 17.3665 6.92968 17.0879 6.92219 16.802C6.91471 16.5162 6.80274 16.243 6.60745 16.0342C6.41216 15.8253 6.1471 15.6953 5.86241 15.6686C5.57772 15.642 5.29315 15.7206 5.06251 15.8897C4.83188 16.0587 4.67119 16.3063 4.61083 16.5858C4.55047 16.8653 4.59462 17.1572 4.73495 17.4064C4.87528 17.6555 5.10205 17.8446 5.37235 17.9378L5.38078 17.9406V18.8446C5.38078 19.5337 5.65455 20.1947 6.14187 20.682C6.62919 21.1693 7.29014 21.4431 7.97931 21.4431C8.66848 21.4431 9.32943 21.1693 9.81675 20.682C10.3041 20.1947 10.5778 19.5337 10.5778 18.8446V18.7977V18.7996V17.6277C10.6581 17.6223 10.7341 17.5899 10.7936 17.5358C10.8531 17.4817 10.8926 17.4092 10.9057 17.3298V17.328C11.6818 17.18 12.3822 16.7667 12.887 16.159C13.3919 15.5513 13.6697 14.7869 13.6728 13.9969V12.4447C14.988 13.0096 16.5449 13.0208 17.7505 13.4939C19.712 14.2611 19.757 15.4423 19.817 15.6203C19.9668 16.0587 20.2554 16.7003 20.3209 19.5499C20.3322 19.9246 20.3209 20.4988 19.1912 21.0009C16.7313 21.9658 13.5623 22.2655 10.4383 22.481H10.1385C7.00791 22.2674 3.84358 21.9686 1.38556 21.0009C0.260534 20.5017 0.250229 19.9312 0.260532 19.5527V19.5518ZM14.0129 18.3902H15.1801V19.5621H16.0138V18.394H17.181V17.5603H16.0138V16.3931H15.1801V17.5603H14.0129V18.3902Z" fill="white"/>
<path d="M5.12308 16.823V16.8221C5.12321 16.6549 5.18971 16.4947 5.30798 16.3765C5.42624 16.2584 5.58659 16.1921 5.75375 16.1921C5.92091 16.1922 6.0812 16.2586 6.19938 16.3769C6.31755 16.4951 6.38394 16.6554 6.38394 16.8226C6.38394 16.9897 6.31755 17.15 6.19938 17.2683C6.0812 17.3865 5.92091 17.4529 5.75375 17.453C5.58659 17.453 5.42624 17.3867 5.30798 17.2686C5.18971 17.1504 5.12321 16.9902 5.12308 16.823Z" fill="white"/>
</svg>
